<svg xmlns="http://www.w3.org/2000/svg" width="47" height="32" viewBox="0 0 47 32" fill="none">
    <path d="M45.7746 5.06127L37.6625 29.3695C37.3746 30.1145 36.8744 30.7601 36.223 31.2273C35.5716 31.6944 34.7973 31.963 33.9948 32L27.9587 32C27.1562 31.963 26.3819 31.6945 25.7305 31.2273C25.0791 30.7601 24.5789 30.1145 24.291 29.3695L23.1473 25.9423C23.085 25.7557 22.9831 25.7557 22.9209 25.9423L21.7772 29.3695C21.4893 30.1145 20.9891 30.7601 20.3377 31.2273C19.6863 31.6945 18.912 31.963 18.1094 32L12.0852 32C11.2827 31.963 10.5084 31.6945 9.85697 31.2273C9.20558 30.7601 8.70536 30.1145 8.41745 29.3695L0.30539 5.06126C0.0515763 4.48552 -0.0466105 3.85396 0.0205319 3.22899C0.0876744 2.60401 0.317823 2.00726 0.688235 1.49768C1.05865 0.98811 1.5565 0.583355 2.13261 0.323413C2.70872 0.0634713 3.34314 -0.0426614 3.97318 0.0155026L9.33087 0.0155036C10.1336 0.0525247 10.9081 0.321164 11.5596 0.788554C12.2111 1.25594 12.7113 1.90182 12.999 2.64716L14.9901 8.61973C15.0523 8.80652 15.1542 8.80652 15.2165 8.61973L17.2075 2.64716C17.4952 1.90182 17.9954 1.25595 18.6469 0.788564C19.2984 0.321174 20.0729 0.0525326 20.8756 0.0155056L25.2055 0.0155064C26.0081 0.0525366 26.7823 0.321017 27.4337 0.788124C28.085 1.25523 28.5853 1.90073 28.8732 2.6457L30.8635 8.6083C30.9258 8.79482 31.0277 8.79482 31.0899 8.6083L33.0803 2.6457C33.3682 1.90073 33.8685 1.25523 34.5198 0.788125C35.1712 0.321018 35.9454 0.0525384 36.748 0.0155084L42.1068 0.0155093C42.7369 -0.0426472 43.3713 0.0634905 43.9474 0.323435C44.5235 0.58338 45.0214 0.988135 45.3918 1.49771C45.7622 2.00728 45.9923 2.60403 46.0595 3.229C46.1266 3.85397 46.0284 4.48553 45.7746 5.06127Z" fill="url(#paint0_linear_2239_6801)"/>
    <path d="M40.8528 22.6129C40.8528 22.6129 31.4661 22.6129 29.1195 22.6129C26.7728 22.6129 24.9595 20.6929 24.9595 18.4529C24.9595 16.2129 24.9595 15.6795 24.9595 15.6795C24.9595 13.3329 26.8795 11.5195 29.1195 11.5195L44.0528 11.5195C45.0128 11.5195 45.6528 12.4795 45.3328 13.3329L42.7728 21.1195C42.4528 21.9729 41.7061 22.6129 40.8528 22.6129Z" fill="#0C1C33"/>
    <path d="M30.5057 20.0534C32.1552 20.0534 33.4924 18.7162 33.4924 17.0668C33.4924 15.4173 32.1552 14.0801 30.5057 14.0801C28.8562 14.0801 27.519 15.4173 27.519 17.0667C27.519 18.7162 28.8562 20.0534 30.5057 20.0534Z" fill="white"/>
    <defs>
        <linearGradient id="paint0_linear_2239_6801" x1="-5.59506e-06" y1="32" x2="29.9844" y2="-11.1775" gradientUnits="userSpaceOnUse">
            <stop stop-color="#0EA7DA"/>
            <stop offset="1" stop-color="#00CC99"/>
        </linearGradient>
    </defs>
</svg>